<svg xmlns="http://www.w3.org/2000/svg" version="1.1" xmlns:xlink="http://www.w3.org/1999/xlink" xmlns:svgjs="http://svgjs.dev/svgjs" width="2000" height="1252" viewBox="0 0 2000 1252"><g transform="matrix(1,0,0,1,-1.2121212121212466,-2.01935483870966)"><svg viewBox="0 0 396 248" data-background-color="#000000" preserveAspectRatio="xMidYMid meet" height="1252" width="2000" xmlns="http://www.w3.org/2000/svg" xmlns:xlink="http://www.w3.org/1999/xlink"><g id="tight-bounds" transform="matrix(1,0,0,1,0.2400000000000091,0.4000000000000057)"><svg viewBox="0 0 395.52 247.2" height="247.2" width="395.52"><rect width="395.52" height="247.2" fill="url(#b622dfa7-25ac-4491-92f0-16e6b24e9051)" mask="url(#2697f8a8-f62a-4c59-9d38-0e349304b0a6)" data-fill-palette-color="tertiary"></rect><g><svg></svg></g><g><svg viewBox="0 0 395.52 247.2" height="247.2" width="395.52"><g><path d="M55.039 247.2l57.352-99.336 0 13.136-45.768 79.272h262.274l-45.768-79.272v-13.136l57.352 99.336zM197.76 0l26.403 45.732-7.583 0-18.82-32.596-18.82 32.596-7.583 0z" fill="url(#b622dfa7-25ac-4491-92f0-16e6b24e9051)" fill-rule="nonzero" stroke="none" stroke-width="1" stroke-linecap="butt" stroke-linejoin="miter" stroke-miterlimit="10" stroke-dasharray="" stroke-dashoffset="0" font-family="none" font-weight="none" font-size="none" text-anchor="none" style="mix-blend-mode: normal" data-fill-palette-color="tertiary"></path></g><g transform="matrix(1,0,0,1,134.63861842105263,67.97999999999999)"><svg viewBox="0 0 126.24276315789473 111.24" height="111.24" width="126.24276315789473"><g><svg viewBox="0 0 126.24276315789473 111.24" height="111.24" width="126.24276315789473"><g><svg viewBox="0 0 126.24276315789473 111.24" height="111.24" width="126.24276315789473"><g id="textblocktransform"><svg viewBox="0 0 126.24276315789473 111.24" height="111.24" width="126.24276315789473" id="textblock"><g><svg viewBox="0 0 126.24276315789473 111.24" height="111.24" width="126.24276315789473"><g transform="matrix(1,0,0,1,0,0)"><svg width="126.24276315789473" viewBox="1.35 -28.35 34.5 30.400000000000002" height="111.24" data-palette-color="url(#4773d547-4d5b-408d-87b2-0f6fc5d23b48)"></svg></g></svg></g></svg></g></svg></g><g></g></svg></g></svg></g></svg></g><defs></defs><mask id="c9f6bc7a-dbbc-4a7b-9a92-bca1edb85da0"><g id="SvgjsG1670"><svg viewBox="0 0 395.52 247.2" height="247.2" width="395.52"><g><svg></svg></g><g><svg viewBox="0 0 395.52 247.2" height="247.2" width="395.52"><g><path d="M55.039 247.2l57.352-99.336 0 13.136-45.768 79.272h262.274l-45.768-79.272v-13.136l57.352 99.336zM197.76 0l26.403 45.732-7.583 0-18.82-32.596-18.82 32.596-7.583 0z" fill="black" fill-rule="nonzero" stroke="none" stroke-width="1" stroke-linecap="butt" stroke-linejoin="miter" stroke-miterlimit="10" stroke-dasharray="" stroke-dashoffset="0" font-family="none" font-weight="none" font-size="none" text-anchor="none" style="mix-blend-mode: normal"></path></g><g transform="matrix(1,0,0,1,134.63861842105263,67.97999999999999)"><svg viewBox="0 0 126.24276315789473 111.24" height="111.24" width="126.24276315789473"><g><svg viewBox="0 0 126.24276315789473 111.24" height="111.24" width="126.24276315789473"><g><svg viewBox="0 0 126.24276315789473 111.24" height="111.24" width="126.24276315789473"><g id="SvgjsG1669"><svg viewBox="0 0 126.24276315789473 111.24" height="111.24" width="126.24276315789473" id="SvgjsSvg1668"><g><svg viewBox="0 0 126.24276315789473 111.24" height="111.24" width="126.24276315789473"><g transform="matrix(1,0,0,1,0,0)"><svg width="126.24276315789473" viewBox="1.35 -28.35 34.5 30.400000000000002" height="111.24" data-palette-color="url(#4773d547-4d5b-408d-87b2-0f6fc5d23b48)"><path d="M10.1 2.05L10.1 2.05Q8.6 2.05 7.23 1.48 5.85 0.9 4.98-0.35 4.1-1.6 4.1-3.55L4.1-3.55Q4.1-6.35 5.35-9.13 6.6-11.9 8.65-14.5L8.65-14.5Q5.45-14.9 3.4-16.1 1.35-17.3 1.35-19.6L1.35-19.6Q1.35-21.2 2.25-22.28 3.15-23.35 4.53-24 5.9-24.65 7.48-25 9.05-25.35 10.43-25.45 11.8-25.55 12.6-25.55L12.6-25.55Q12.85-25.55 13.78-25.53 14.7-25.5 15.78-25.43 16.85-25.35 17.65-25.2 18.45-25.05 18.45-24.85L18.45-24.85Q18.45-24.65 18.1-24.65L18.1-24.65Q17.45-24.65 16.65-24.73 15.85-24.8 15.05-24.8L15.05-24.8Q14.45-24.8 13.85-24.8 13.25-24.8 12.7-24.75L12.7-24.75Q11.7-24.7 10.2-24.53 8.7-24.35 7.23-23.83 5.75-23.3 4.75-22.28 3.75-21.25 3.75-19.5L3.75-19.5Q3.75-17.65 5.28-16.63 6.8-15.6 9.25-15.3L9.25-15.3Q11.6-18.1 14.6-20.48 17.6-22.85 20.73-24.6 23.85-26.35 26.78-27.35 29.7-28.35 31.9-28.35L31.9-28.35Q33.35-28.35 34.6-27.83 35.85-27.3 35.85-25.65L35.85-25.65Q35.85-23.7 34.33-22 32.8-20.3 30.25-18.9 27.7-17.5 24.55-16.48 21.4-15.45 18.05-14.9 14.7-14.35 11.65-14.35L11.65-14.35 11.25-14.35Q9.4-11.85 8.28-9.22 7.15-6.6 7.15-4L7.15-4Q7.15-1.55 8.25-0.28 9.35 1 10.85 1L10.85 1Q13.05 1 15.4-0.08 17.75-1.15 19.78-2.9 21.8-4.65 23.2-6.68 24.6-8.7 24.9-10.6L24.9-10.6Q24.9-10.7 24.93-10.8 24.95-10.9 24.95-11L24.95-11Q24.95-11.65 24.55-12.08 24.15-12.5 23.25-12.5L23.25-12.5Q23.05-12.5 22.85-12.48 22.65-12.45 22.4-12.4L22.4-12.4Q21-12.15 19.2-10.95 17.4-9.75 15.83-7.98 14.25-6.2 13.45-4.2L13.45-4.2Q13.25-4.1 13.2-4.1L13.2-4.1Q12.95-4.1 13.1-4.7L13.1-4.7Q13.6-6.05 14.73-7.58 15.85-9.1 17.4-10.45 18.95-11.8 20.75-12.65 22.55-13.5 24.4-13.5L24.4-13.5Q25.8-13.45 26.45-12.85 27.1-12.25 27.1-11.25L27.1-11.25Q27.1-9.8 25.9-7.9L25.9-7.9Q24.95-6.4 23.23-4.67 21.5-2.95 19.3-1.43 17.1 0.1 14.73 1.07 12.35 2.05 10.1 2.05ZM11.85-15.15L11.85-15.15Q14.6-15.15 17.73-15.73 20.85-16.3 23.85-17.3 26.85-18.3 29.3-19.65 31.75-21 33.23-22.55 34.7-24.1 34.7-25.8L34.7-25.8Q34.7-26.95 33.83-27.3 32.95-27.65 31.95-27.65L31.95-27.65Q29.9-27.65 27.3-26.68 24.7-25.7 21.93-24 19.15-22.3 16.55-20.03 13.95-17.75 11.85-15.15Z" opacity="1" transform="matrix(1,0,0,1,0,0)" fill="white" class="wordmark-text-0" id="SvgjsPath1667"></path></svg></g></svg></g></svg></g></svg></g><g></g></svg></g></svg></g></svg></g><defs><mask></mask></defs></svg><rect width="395.52" height="247.2" fill="black" stroke="none" visibility="hidden"></rect></g></mask><linearGradient x1="0" x2="1" y1="0.5" y2="0.5" id="4773d547-4d5b-408d-87b2-0f6fc5d23b48"><stop stop-color="#f00b51" offset="0"></stop><stop stop-color="#730062" offset="1"></stop></linearGradient><rect width="395.52" height="247.2" fill="url(#4773d547-4d5b-408d-87b2-0f6fc5d23b48)" mask="url(#c9f6bc7a-dbbc-4a7b-9a92-bca1edb85da0)" data-fill-palette-color="primary"></rect><mask id="2697f8a8-f62a-4c59-9d38-0e349304b0a6"><g id="SvgjsG1693"><svg viewBox="0 0 395.52 247.2" height="247.2" width="395.52"><g><svg></svg></g><g><svg viewBox="0 0 395.52 247.2" height="247.2" width="395.52"><g><path d="M55.039 247.2l57.352-99.336 0 13.136-45.768 79.272h262.274l-45.768-79.272v-13.136l57.352 99.336zM197.76 0l26.403 45.732-7.583 0-18.82-32.596-18.82 32.596-7.583 0z" fill="white" fill-rule="nonzero" stroke="none" stroke-width="1" stroke-linecap="butt" stroke-linejoin="miter" stroke-miterlimit="10" stroke-dasharray="" stroke-dashoffset="0" font-family="none" font-weight="none" font-size="none" text-anchor="none" style="mix-blend-mode: normal"></path></g><g transform="matrix(1,0,0,1,134.63861842105263,67.97999999999999)"><svg viewBox="0 0 126.24276315789473 111.24" height="111.24" width="126.24276315789473"><g><svg viewBox="0 0 126.24276315789473 111.24" height="111.24" width="126.24276315789473"><g><svg viewBox="0 0 126.24276315789473 111.24" height="111.24" width="126.24276315789473"><g id="SvgjsG1692"><svg viewBox="0 0 126.24276315789473 111.24" height="111.24" width="126.24276315789473" id="SvgjsSvg1691"><g><svg viewBox="0 0 126.24276315789473 111.24" height="111.24" width="126.24276315789473"><g transform="matrix(1,0,0,1,0,0)"><svg width="126.24276315789473" viewBox="1.35 -28.35 34.5 30.400000000000002" height="111.24" data-palette-color="url(#4773d547-4d5b-408d-87b2-0f6fc5d23b48)"></svg></g></svg></g></svg></g></svg></g><g></g></svg></g></svg></g></svg></g><defs><mask></mask></defs><mask><g id="SvgjsG1690"><svg viewBox="0 0 395.52 247.2" height="247.2" width="395.52"><g><svg></svg></g><g><svg viewBox="0 0 395.52 247.2" height="247.2" width="395.52"><g><path d="M55.039 247.2l57.352-99.336 0 13.136-45.768 79.272h262.274l-45.768-79.272v-13.136l57.352 99.336zM197.76 0l26.403 45.732-7.583 0-18.82-32.596-18.82 32.596-7.583 0z" fill="black" fill-rule="nonzero" stroke="none" stroke-width="1" stroke-linecap="butt" stroke-linejoin="miter" stroke-miterlimit="10" stroke-dasharray="" stroke-dashoffset="0" font-family="none" font-weight="none" font-size="none" text-anchor="none" style="mix-blend-mode: normal"></path></g><g transform="matrix(1,0,0,1,134.63861842105263,67.97999999999999)"><svg viewBox="0 0 126.24276315789473 111.24" height="111.24" width="126.24276315789473"><g><svg viewBox="0 0 126.24276315789473 111.24" height="111.24" width="126.24276315789473"><g><svg viewBox="0 0 126.24276315789473 111.24" height="111.24" width="126.24276315789473"><g id="SvgjsG1689"><svg viewBox="0 0 126.24276315789473 111.24" height="111.24" width="126.24276315789473" id="SvgjsSvg1688"><g><svg viewBox="0 0 126.24276315789473 111.24" height="111.24" width="126.24276315789473"><g transform="matrix(1,0,0,1,0,0)"><svg width="126.24276315789473" viewBox="1.35 -28.35 34.5 30.400000000000002" height="111.24" data-palette-color="url(#4773d547-4d5b-408d-87b2-0f6fc5d23b48)"><path d="M10.1 2.05L10.1 2.05Q8.6 2.05 7.23 1.48 5.85 0.9 4.98-0.35 4.1-1.6 4.1-3.55L4.1-3.55Q4.1-6.35 5.35-9.13 6.6-11.9 8.65-14.5L8.65-14.5Q5.45-14.9 3.4-16.1 1.35-17.3 1.35-19.6L1.35-19.6Q1.35-21.2 2.25-22.28 3.15-23.35 4.53-24 5.9-24.65 7.48-25 9.05-25.35 10.43-25.45 11.8-25.55 12.6-25.55L12.6-25.55Q12.85-25.55 13.78-25.53 14.7-25.5 15.78-25.43 16.85-25.35 17.65-25.2 18.45-25.05 18.45-24.85L18.45-24.85Q18.45-24.65 18.1-24.65L18.1-24.65Q17.45-24.65 16.65-24.73 15.85-24.8 15.05-24.8L15.05-24.8Q14.45-24.8 13.85-24.8 13.25-24.8 12.7-24.75L12.7-24.75Q11.7-24.7 10.2-24.53 8.7-24.35 7.23-23.83 5.75-23.3 4.75-22.28 3.75-21.25 3.75-19.5L3.75-19.5Q3.75-17.65 5.28-16.63 6.8-15.6 9.25-15.3L9.25-15.3Q11.6-18.1 14.6-20.48 17.6-22.85 20.73-24.6 23.85-26.35 26.78-27.35 29.7-28.35 31.9-28.35L31.9-28.35Q33.35-28.35 34.6-27.83 35.85-27.3 35.85-25.65L35.85-25.65Q35.85-23.7 34.33-22 32.8-20.3 30.25-18.9 27.7-17.5 24.55-16.48 21.4-15.45 18.05-14.9 14.7-14.35 11.65-14.35L11.65-14.35 11.25-14.35Q9.4-11.85 8.28-9.22 7.15-6.6 7.15-4L7.15-4Q7.15-1.55 8.25-0.28 9.35 1 10.85 1L10.85 1Q13.05 1 15.4-0.08 17.75-1.15 19.78-2.9 21.8-4.65 23.2-6.68 24.6-8.7 24.9-10.6L24.9-10.6Q24.9-10.7 24.93-10.8 24.95-10.9 24.95-11L24.95-11Q24.95-11.65 24.55-12.08 24.15-12.5 23.25-12.5L23.25-12.5Q23.05-12.5 22.85-12.48 22.65-12.45 22.4-12.4L22.4-12.4Q21-12.15 19.2-10.95 17.4-9.75 15.83-7.98 14.25-6.2 13.45-4.2L13.45-4.2Q13.25-4.1 13.2-4.1L13.2-4.1Q12.95-4.1 13.1-4.7L13.1-4.7Q13.6-6.05 14.73-7.58 15.85-9.1 17.4-10.45 18.95-11.8 20.75-12.65 22.55-13.5 24.4-13.5L24.4-13.5Q25.8-13.45 26.45-12.85 27.1-12.25 27.1-11.25L27.1-11.25Q27.1-9.8 25.9-7.9L25.9-7.9Q24.95-6.4 23.23-4.67 21.5-2.95 19.3-1.43 17.1 0.1 14.73 1.07 12.35 2.05 10.1 2.05ZM11.85-15.15L11.85-15.15Q14.6-15.15 17.73-15.73 20.85-16.3 23.85-17.3 26.85-18.3 29.3-19.65 31.75-21 33.23-22.55 34.7-24.1 34.7-25.8L34.7-25.8Q34.7-26.95 33.83-27.3 32.95-27.65 31.95-27.65L31.95-27.65Q29.9-27.65 27.3-26.68 24.7-25.7 21.93-24 19.15-22.3 16.55-20.03 13.95-17.75 11.85-15.15Z" opacity="1" transform="matrix(1,0,0,1,0,0)" fill="black" class="wordmark-text-0" id="SvgjsPath1687"></path></svg></g></svg></g></svg></g></svg></g><g></g></svg></g></svg></g></svg></g><defs><mask></mask></defs></svg><rect width="395.52" height="247.2" fill="black" stroke="none" visibility="hidden"></rect></g></mask></svg><rect width="395.52" height="247.2" fill="black" stroke="none" visibility="hidden"></rect></g></mask><linearGradient x1="0" x2="1" y1="0.5" y2="0.5" id="b622dfa7-25ac-4491-92f0-16e6b24e9051"><stop stop-color="#f00b51" offset="0"></stop><stop stop-color="#730062" offset="1"></stop></linearGradient></svg><rect width="395.52" height="247.2" fill="none" stroke="none" visibility="hidden"></rect></g></svg></g></svg>